<svg xmlns="http://www.w3.org/2000/svg" viewBox="0 0 653.58 408.2"><defs><style>.cls-1{fill:#323a4c;}.cls-2{fill:#fff;stroke:#454955;stroke-miterlimit:10;}</style></defs><title>Asset 37</title><g id="Layer_2" data-name="Layer 2"><g id="Layer_1-2" data-name="Layer 1"><polygon class="cls-1" points="2.19 408.2 2.11 169.01 42.81 150.89 107.15 81.34 149.25 31.85 175.6 19.95 192.27 19.95 210.69 22.25 217.78 30.78 221.51 37.61 225.35 44.66 228.64 53.49 242.59 44.76 267.31 25.47 288.92 14.9 298.41 12.6 304.39 21.33 315.16 42.93 324.2 56.25 335.49 56.25 351.43 42.22 363.01 28.68 378.16 24.55 397.49 15.36 422.82 27.3 449.14 39.71 469.11 55.33 480.24 67.28 492.29 75.55 513.73 101.73 531.57 109.54 553.21 124.7 571.85 134.81 596.27 155.94 624.19 160.54 641.84 169.25 651.46 168.47 651.46 408.2 2.19 408.2"/><polygon class="cls-2" points="153.36 170.09 166.9 166.07 182.31 174.03 192.19 152.78 208.45 138.89 229.7 141.26 264.47 168.29 261.2 149.56 252.8 134.71 229.7 122.31 206.12 110.92 214.69 96.4 237.76 57.67 276.14 24.86 295.74 15.72 307.42 31.85 314.42 66.82 300.41 80.26 282.21 85.1 262.52 105.22 292.01 107.16 316.75 118.45 319.08 144.09 335.42 155.56 345.23 167.4 338.69 142.66 345.23 146.42 351.76 156.64 351.76 166.32 349.8 177.18 358.3 164.17 372.77 163.63 383.97 182.99 373.34 136.19 356.68 114.3 343.36 91.83 341.03 51.76 325.62 41.54 318.15 29.16 305.4 10.88 299.01 0.66 262.13 20.02 244.86 36.16 223.85 54.98 212.65 79.72 193.04 99.63 189.31 117.91 180.43 131.9 171.56 145.34 152.9 157.18 138.89 173.85 133.29 180.84 153.36 170.09"/><path class="cls-2" d="M2.11,169s78.9-53.79,98.5-91.44S144,28.09,144,28.09L160.37,19,182.31.66l14.94,11.83,16.54,6.72,7.26,7.27,6.28,13,.61,5.2.7,6L217.79,30.78l-13.54-8.61-7.94,7-.93,8.06,3.27,10.22.46,37.38-11.2-33.61-5.14-8.61-6.06-9.14-13.54-3.23-14,20.44L124.89,66.82,123,85.1l-4.67,21-8.4,7,4.67-12.37-2.34-12.37-5.13-7-1.4,15.6-6.07,13.44L84.27,148l-.46-20.44,5.6-21.51L56.82,145.34l-10.36,19.9-4.2,14-9.15-15.06Z"/><path class="cls-2" d="M651.46,168.47S534.65,120.41,508.87,82.76s-57.08-49.48-57.08-49.48L430.3,24.13,400.31.66,374,19.51l-19.8,4.62-8.5,10.41L342.53,51l12.86-12.72,10.84-3.77,6.54,4.84V53.91l4.3,24.74,14.74,16.13L405,102.31l19.31-.53L406.85,84l-10-14.53-2.76-13.09,6.75-8.61,8-9.14,17.63,1.8,24.94,10.22L467.58,76.5l2.76,18.28,10.27,20.44L496.48,133,486.05,95.35l3.88-15.63,10.35,6.81,1.84,15.6,8,13.44,20.26,37.65.61-20.44-7.37-21.51,30.3,33L560,157.7,547.83,183,567,171.7l5.13-7,2-6.64-6.65-19.18,16.34,12.37,19,12.4,28.66,6.43Z"/></g></g></svg>