<svg xmlns="http://www.w3.org/2000/svg" viewBox="0 0 2844.6 615.9"><defs><style>.cls-1{fill:#323a4c;}.cls-2{fill:#fff;stroke:#454955;stroke-miterlimit:10;}</style></defs><title>Asset 35</title><g id="Layer_2" data-name="Layer 2"><g id="Layer_1-2" data-name="Layer 1"><path class="cls-1" d="M1005.82,429.26l35.81-1.1,49.69-22.08,78.57-11.65,68.75-53.6,52.46-25.63L1352,276.76,1402.22,257l60.35-66.41,33.93-21,31.33-30.29L1584,99.66l74.08-31.45,71.29-30.29,54.41,23.3,42.65,10.48L1859.05,106l44.87,35.58h31.8l25.44-33.79,30.3-54.76,16.84-22.13L2035,36.75l60.83,26.8,69.59,48.93,39.25,22.14,9.26-22.41,10.82-17.88L2235.24,77l20-21.63,51.83-5.82H2354l74.15,30.17,118.51,125.49,181.09,176.38,114.56,45.95-.2,188.17H1014.55L0,615.9V529.38l177-19.6L331,500s232.37-15.4,236.57-15.4H706.17L828,466.08l109.75-13.7,68.12-23.12"/><polygon class="cls-2" points="2416.57 430.29 2378.46 420.11 2335.1 440.28 2307.27 386.41 2261.52 351.18 2201.69 357.2 2103.84 425.73 2113.04 378.23 2136.69 340.58 2201.69 309.13 2268.09 280.25 2243.96 243.42 2179.02 145.22 2070.99 62.01 2015.8 38.83 1982.95 79.74 1963.24 168.4 2002.66 202.5 2053.91 214.78 2109.32 265.8 2026.32 270.7 1956.67 299.34 1950.1 364.36 1904.11 393.46 1876.52 423.47 1894.92 360.72 1876.52 370.27 1858.13 396.19 1858.13 420.74 1863.66 448.27 1839.73 415.28 1799 413.92 1767.46 463.02 1797.39 344.34 1844.3 288.81 1881.78 231.83 1888.35 130.21 1931.71 104.3 1952.73 72.92 1988.62 26.55 2006.61 0.63 2110.41 49.74 2159.03 90.66 2218.16 138.4 2249.69 201.14 2304.88 251.6 2315.39 297.98 2340.38 333.44 2365.35 367.54 2417.88 397.55 2457.3 439.83 2473.07 457.56 2416.57 430.29"/><path class="cls-2" d="M2842.3,427.56s-222.06-136.4-277.25-231.88S2442.85,70.2,2442.85,70.2l-46-23.19L2335.1.63l-42,30-46.56,17L2226,66.1l-17.66,33-1.71,13.19-2,15.26L2235.24,77l38.1-21.83,22.34,17.73,2.63,20.46-9.2,25.92-1.31,94.8,31.53-85.25L2333.79,107l17.08-23.18,38.1-8.19,39.42,51.83,68.33,40.92,5.26,46.38L2515.12,268l23.65,17.73-13.14-31.37L2532.2,223l14.45-17.73,3.94,39.56,17.09,34.09L2611,374.36l1.31-51.83L2596.58,268l91.72,99.57L2717.47,418l11.83,35.46L2755,415.28Z"/><path class="cls-2" d="M1071.05,430.29,1151.73,414l53.34-31.45,46-31.37-18.71,48.65,5.57,16.82,14.46,17.73L1306.25,463,1272,398.88l17.15-34.06,85.26-83.69-20.73,54.56,1.73,51.83,57-95.48,22.46-34.1,5.19-39.55,29.14-17.27,10.91,39.63-29.35,95.42,44.68-45,28.9-51.83,7.76-46.38,45.56-65.47,70.2-25.91L1697.53,97,1720,120.18,1739,142l-7.76,33.21-28.16,36.83-49.1,45,54.36,1.36,37.06-19.09,41.52-40.92L1799,135.67V98.84l18.41-12.28,30.51,9.55,36.21,32.26-8.92-41.81L1851.3,60.17l-55.73-11.73L1721.47.63l-84.42,59.54-60.47,23.19s-88.11,30-160.68,125.48c-59.34,78.07-290,173.79-372.1,206.1,0,0-244.92,55.38-353.17,53.51s-450.75,24.27-450.75,24.27S25.81,516.05,8.72,526.31l340.34-21.46,214.65-5.6,172.64-2.8,126.92-16.8,152.12-33.6Z"/></g></g></svg>